# xmcd
#
# Track frame offsets:
#   150
#   16593
#   31545
#   46257
#   61206
#   83459
#   97920
#   114091
#   121736
#   133891
#   147760
#   172297
#   189771
#   206437
#   223183
#   241012
#
# Disc length: 3402 seconds
#
# Revision: 0
# Processed by: cddbd v1.5.2PL0 Copyright (c) Steve Scherf et al.
# Submitted via: uFREEDB ActiveX Control 1.5
#
DISCID=c00d4810
DTITLE=angelita - cd ney
DYEAR=1900
DGENRE=Alternative
TTITLE0=11
TTITLE1=12
TTITLE2=13
TTITLE3=14
TTITLE4=15
TTITLE5=16
TTITLE6=17
TTITLE7=18
TTITLE8=19
TTITLE9=20
TTITLE10=21
TTITLE11=22
TTITLE12=23
TTITLE13=24
TTITLE14=25
TTITLE15=26
EXTD=
EXTT0=
EXTT1=
EXTT2=
EXTT3=
EXTT4=
EXTT5=
EXTT6=
EXTT7=
EXTT8=
EXTT9=
EXTT10=
EXTT11=
EXTT12=
EXTT13=
EXTT14=
EXTT15=
PLAYORDER=
